/* XPM */
static char *_8230b238f2043769ce6e5eed4546262ikjVD7GD178l6gn6[] = {
/* columns rows colors chars-per-pixel */
"32 32 186 2 ",
"   c None",
".  c gray6",
"X  c #3B271B",
"o  c #3A281E",
"O  c #3D2C21",
"+  c #412E23",
"@  c #512D20",
"#  c #502F25",
"$  c #453126",
"%  c #483427",
"&  c #4E3028",
"*  c #4C3529",
"=  c #4F3A2D",
"-  c #543326",
";  c #5A3427",
":  c #503B2D",
">  c #503B2E",
",  c #533A33",
"<  c #5D3F35",
"1  c #574033",
"2  c #584236",
"3  c #5A4337",
"4  c #5B4538",
"5  c #59473B",
"6  c #614232",
"7  c #614335",
"8  c #604037",
"9  c #634435",
"0  c #65463D",
"q  c #6D473E",
"w  c #684939",
"e  c #694B3E",
"r  c #6F493E",
"t  c #1E3F4A",
"y  c #353D41",
"u  c #3A4348",
"i  c #254955",
"p  c #364E57",
"a  c #38535E",
"s  c #5E4E42",
"d  c #6B4841",
"f  c #6C4B40",
"g  c #684C40",
"h  c #704B40",
"j  c #704E43",
"k  c #764E43",
"l  c #6B5446",
"z  c #715041",
"x  c #705346",
"c  c #745546",
"v  c #755447",
"b  c #755646",
"n  c #785646",
"m  c #745649",
"M  c #775648",
"N  c #7B5748",
"B  c #7B574D",
"V  c #765E4F",
"C  c #79584B",
"Z  c #78594D",
"A  c #7F594C",
"S  c #7D5C4C",
"D  c #765951",
"F  c #705D51",
"G  c #755F51",
"H  c #826253",
"J  c #8A6357",
"K  c #8B6357",
"L  c #856358",
"P  c #85665A",
"I  c #8F665C",
"U  c #89685B",
"Y  c #976A5B",
"T  c #91705F",
"R  c #876E60",
"E  c #8F6E64",
"W  c #936763",
"Q  c #976D60",
"!  c #946E63",
"~  c #8E7164",
"^  c #997764",
"/  c #99766B",
"(  c #99776B",
")  c #9D756C",
"_  c #9C7B6C",
"`  c #9F796E",
"'  c #A17469",
"]  c #A0766C",
"[  c #AD7368",
"{  c #A17B6E",
"}  c #A07B6F",
"|  c #A47E73",
" . c #AA7F70",
".. c #A78377",
"X. c #AC8170",
"o. c #AB8075",
"O. c #AC8776",
"+. c #AE827B",
"@. c #AA847A",
"#. c #B0827E",
"$. c #B5867C",
"%. c #B28D7B",
"&. c #B38B7E",
"*. c #538F9E",
"=. c #52909F",
"-. c #3DB1D7",
";. c #3DB5DB",
":. c #3EB5DB",
">. c #3DBEE8",
",. c #41ABCC",
"<. c #3EC1EB",
"1. c #3FC3EE",
"2. c #3EC5F0",
"3. c #3FC6F1",
"4. c #3DC7F3",
"5. c #3FC7F2",
"6. c #3EC7F3",
"7. c #3FC8F3",
"8. c #3FC8F4",
"9. c #3FC8F5",
"0. c #40C9F5",
"q. c #888C8E",
"w. c #8B8F91",
"e. c #B48C82",
"r. c #B69285",
"t. c #B59087",
"y. c #BB9380",
"u. c #BA9481",
"i. c #B89484",
"p. c #BE9684",
"a. c #BA9489",
"s. c #BE968D",
"d. c #BB998B",
"f. c #BC9790",
"g. c #B0B1B1",
"h. c #C69B8B",
"j. c #C0998F",
"k. c #C3998F",
"l. c #C29A90",
"z. c #C39B91",
"x. c #C69C93",
"c. c #C5A191",
"v. c #C7A290",
"b. c #C9A191",
"n. c #C9A396",
"m. c #CCA196",
"M. c #CBA59B",
"N. c #CFA998",
"B. c #CFA89F",
"V. c #D2A39B",
"C. c #D2ABA3",
"Z. c #D2ACA3",
"A. c #D4AEA8",
"S. c #D6B1A8",
"D. c #DCB3A8",
"F. c #D9B5AE",
"G. c #DCBAAA",
"H. c #DAB6B0",
"J. c #DEBCB4",
"K. c #E4BFB4",
"L. c #E6C1B7",
"P. c #E5C2B7",
"I. c #E4C1BB",
"U. c #E4C2BD",
"Y. c #E6C5BE",
"T. c gray78",
"R. c #D0D5D7",
"E. c gray83",
"W. c gray85",
"Q. c gainsboro",
"!. c #DFDFDF",
"~. c #EAC7C0",
"^. c #E4E4E4",
"/. c #E6E6E6",
"(. c gray91",
"). c #E8EAEB",
"_. c #ECECEC",
"`. c #EEEEEE",
"'. c #EFF0F1",
"]. c #F1F1F1",
"[. c #F3F4F5",
"{. c #F4F4F4",
"}. c #F5F7F7",
"|. c #F6F6F6",
" X c #F8F8F8",
".X c #FDFDFD",
/* pixels */
"                                                                ",
"                            5 F                                 ",
"                          O o 4 l >                             ",
"                        X * g U / P 2                           ",
"                      $ m ` s.S.I.L.r.1                         ",
"                    + x | z.Z.H.U.Y.P.~                         ",
"                    % Z ..s.B.C.A.J.L.d.3                       ",
"                    > m L f K z.Y I &.c.V                       ",
"                    > e < , 0 M./ D { v.R                       ",
"                      H t.s.) x.D.F.Y.G._                       ",
"                    - c $.+.r k ' $.x.N.X.[                     ",
"                    @ 7 H f # q ' o.Y u.h.V.                    ",
"                    ; 6 N 7 & E | I X.u.b.                      ",
"                      9 c B d W #.z.p.O.                        ",
"                        w z f B @.n.&.T                         ",
"                          9 N ! a.i.^                           ",
"                            s c S G                             ",
"                            :.=.=.,.                            ",
"                          i <.4.4.>.t                           ",
"                            0.7.9.1.                            ",
"                      .     0.9.9.4.                            ",
"                            7.7.0.1.                            ",
"                            :.4.4.-.    g.                      ",
"                    |.|.    a     p     .X                      ",
"                    |.'.    y           ).                      ",
"                    R.            u                             ",
"                                                                ",
"                            w.    q.                            ",
"                            Q.E.W./.T.                          ",
"                          |..X_./.]. XQ.                        ",
"                            ).    `.`.                          ",
"                                                                "
};
