/* XPM */
static char *b984849262dd4f5bf2fc56ff95f8ecb1IIVyauFEe2QvhJFO[] = {
/* columns rows colors chars-per-pixel */
"64 64 192 2 ",
"   c None",
".  c #060606",
"X  c #0C0B0B",
"o  c #0B0807",
"O  c #100E0E",
"+  c #1A1A1A",
"@  c #161616",
"#  c #23140E",
"$  c #351E15",
"%  c #332217",
"&  c #34241A",
"*  c #39271B",
"=  c #3B281D",
"-  c #37281C",
";  c #3F2721",
":  c #3E2A20",
">  c #4B1C11",
",  c #42251B",
"<  c #522518",
"1  c #432E23",
"2  c #4E2C23",
"3  c #522F23",
"4  c #453226",
"5  c #4A3326",
"6  c #4A3528",
"7  c #4E3A2D",
"8  c #463428",
"9  c #533226",
"0  c #53362C",
"q  c #533B2D",
"w  c #583025",
"e  c #553E32",
"r  c #5C3E31",
"t  c #513D38",
"y  c #61382C",
"u  c #663D31",
"i  c #5D4131",
"p  c #5B453B",
"a  c #56463B",
"s  c #634435",
"d  c #6B4434",
"f  c #6A4937",
"g  c #65463A",
"h  c #64493A",
"j  c #6B4A3D",
"k  c #6B423A",
"l  c #74483D",
"z  c #1B3942",
"x  c #343D42",
"c  c #374146",
"v  c #394246",
"b  c #3B454C",
"n  c #214651",
"m  c #384F57",
"M  c #38545F",
"N  c #396777",
"B  c #484C4F",
"V  c #444E51",
"C  c #515658",
"Z  c #6C4E43",
"A  c #724D43",
"S  c #774F48",
"D  c #6B5244",
"F  c #6B5649",
"G  c #69574B",
"H  c #725244",
"J  c #7A5347",
"K  c #7A5947",
"L  c #74564A",
"P  c #7C564C",
"I  c #7C5B4D",
"U  c #77594B",
"Y  c #7D5E51",
"T  c #785851",
"R  c #7D6154",
"E  c #7B685C",
"W  c #80564A",
"Q  c #825A4C",
"!  c #89584C",
"~  c #905045",
"^  c #885D56",
"/  c #856355",
"(  c #8A6459",
")  c #8D6B5C",
"_  c #896757",
"`  c #946C5D",
"'  c #986B5C",
"]  c #92645A",
"[  c #91705D",
"{  c #936C61",
"}  c #9A6C64",
"|  c #8C7463",
" . c #967365",
".. c #9C7365",
"X. c #9D7469",
"o. c #9D7A6D",
"O. c #967969",
"+. c #997D72",
"@. c #866B64",
"#. c #A26E6E",
"$. c #A5796A",
"%. c #B17468",
"&. c #A37C73",
"*. c #A97874",
"=. c #B07C7B",
"-. c #9E8272",
";. c #A58372",
":. c #AB8374",
">. c #AB8579",
",. c #AC8979",
"<. c #B28976",
"1. c #B3867B",
"2. c #B38C7C",
"3. c #BA8C7C",
"4. c #B78278",
"5. c #B9917E",
"6. c #367D92",
"7. c #437A89",
"8. c #3A9DBD",
"9. c #4AA3BC",
"0. c #2CA5CC",
"q. c #3DB1D6",
"w. c #3EB7DF",
"e. c #3DBAE2",
"r. c #3EBFE8",
"t. c #48AFCE",
"y. c #3EC2EC",
"u. c #3FC6F2",
"i. c #3FC8F4",
"p. c #40C7F2",
"a. c #86888A",
"s. c #979A9A",
"d. c #B38D82",
"f. c #BA8C86",
"g. c #B59382",
"h. c #BB9383",
"j. c #BE9985",
"k. c #BC958B",
"l. c #BB978A",
"z. c #B9A69A",
"x. c #BDBDBD",
"c. c #C48E85",
"v. c #C2938B",
"b. c #C39A8E",
"n. c #C49385",
"m. c #C49C93",
"M. c #C79F98",
"N. c #C8A18E",
"B. c #CAA495",
"V. c #CDA59C",
"C. c #CEAB9B",
"Z. c #C6A396",
"A. c #D2AA9C",
"S. c #D2A59A",
"D. c #D6B19D",
"F. c #CFA9A2",
"G. c #C1ACA0",
"H. c #D2ABA2",
"J. c #DBA8A0",
"K. c #DBB6A6",
"L. c #D6B1AA",
"P. c #DBB4AB",
"I. c #D7B3A3",
"U. c #DEBBB4",
"Y. c #DBB7B2",
"T. c #E2BBAF",
"R. c #E1B7AC",
"E. c #E4BEB4",
"W. c #E2BFBA",
"Q. c #E4C0B5",
"!. c #E5C2BA",
"~. c #EAC6BE",
"^. c #EAC9BD",
"/. c #BFBFC0",
"(. c #C7C8C8",
"). c #CED7DB",
"_. c #CCD1D2",
"`. c #D4D4D4",
"'. c #DCDCDC",
"]. c #D4DBDD",
"[. c #E9C7C2",
"{. c #EACAC3",
"}. c #E7C6C1",
"|. c #DCE1E2",
" X c #E3E3E4",
".X c #EAEBEB",
"XX c #E7E9E9",
"oX c #EEF1F1",
"OX c #F4F4F4",
"+X c #F7F8F8",
"@X c #FDFEFE",
"#X c #F6F7F8",
/* pixels */
"                                                                                                                                ",
"                                                                                                                                ",
"                                                        G G E                                                                   ",
"                                                      a e 7 F E E G                                                             ",
"                                                    7 4 & - 7 F R F q 7                                                         ",
"                                                  = - & % = 6 p Z Z a 6 7                                                       ",
"                                                & % % : 4 e Z U I D r 7 4 6                                                     ",
"                                              % * , 5 f L / { >.d.l.l.-.f 1                                                     ",
"                                            # - r H ^ X.>.k.V.Y.Q.}.[.E.C./ 4                                                   ",
"                                            - h I  .>.k.V.H.P.W.!.{.[.Q.R.C.j %                                                 ",
"                                          : i T { &.h.M.V.H.L.U.W.~.[.!.E.U.,.8                                                 ",
"                                          : D ) o.:.k.V.H.H.L.Y.E.~.{.~.^.Q.C.Z -                                               ",
"                                        & 4 L / ;.d.m.F.L.L.L.L.L.W.[.{.~.Q.K.-.8                                               ",
"                                        & e D U o.d.g.m.V.H.H.V.F.F.L.Y.!.Q.K.l.p                                               ",
"                                        - i Z ^ +.o.^ T { 1.v.v.4.} X.:.l.H.K.N.R 6                                             ",
"                                          7 Z Y Y Z i 9 w Q v.F.' u d W ' <.Z.C.| e                                             ",
"                                          q Z j r 2 1 & $ u M.E.X.2 1 t f Q <.C.-.a                                             ",
"                                          7 j g 0 7 t Z t Z M.E.M.O.@.+.g.b.D.D.-.p                                             ",
"                                          i D  .>.d.k.k.*.{ V.E.P.T.Y.U.!.^.^.K.;.T                                             ",
"                                            H o.m.Y.L.M.=.@.b.P.K.R.E.!.{.{.Q.D.;.o.%.                                          ",
"                                          q j _ d.F.H.c.] A W } =.n.3.v.P.Q.U.C.;.$.~                                           ",
"                                        < 9 p L X.f.=.Q u , 2 y w ] 4.! %.n.S.N.;.$.n.4.                                        ",
"                                        > 2 i f Q { S k 2 , 2 Z { f.V.X.l ..5.j.h.c.S.                                          ",
"                                          9 i s A S S k 0 0 S } &.1.h.f.] ' 5.j.n.D.J.                                          ",
"                                          3 i s l Q j 0 ; 2 u ] } ! k P X.$.j.j.b.T.                                            ",
"                                          y s s H ` H ; # r +.z.G.g./ ^ 1.3.5.h.2.                                              ",
"                                            s g f ` / Z Z A T } *.=.v.F.N.5.5.2.                                                ",
"                                              h g K ) H A S ^ #.=.k.m.V.N.<.:.o.                                                ",
"                                                f f K H j g Z ^ { >.k.C.N.;.[ )                                                 ",
"                                                g g f Z A g g P +.k.B.C.j.-._                                                   ",
"                                                  f s s U R ^ &.M.H.C.B.,.[                                                     ",
"                                                  g s i f {  .+.d.k.5.;.[ _                                                     ",
"                                                    s p q f K K / _ Y K Y                                                       ",
"                                                        a a s f f d p Z                                                         ",
"                                                          t.6. .| 7.t.t.                                                        ",
"                                                        i.i.0.9.9.0.p.y.                                                        ",
"                                                      n y.i.i.i.i.i.i.e.z o                                                     ",
"                                                  . O N p.i.i.i.i.i.i.y.N X .                                                   ",
"                                                . X     i.i.i.i.i.i.i.y.    + o                                                 ",
"                                              o +       i.p.i.i.i.i.i.y.      O                                                 ",
"                                              X         p.p.i.i.i.i.i.y.        .                                               ",
"                                            o           i.p.i.i.i.i.i.u.        +                                               ",
"                                            +           i.i.i.i.i.i.i.y.        +                                               ",
"                                            @           i.i.i.i.i.i.i.w.                                                        ",
"                                            @           e.p.i.i.i.i.i.q.        C C                                             ",
"                                          s.a.          8.e.i.i.i.i.q.           X'.                                            ",
"                                          OX#X            M         m         +X@X@X                                            ",
"                                        @X@X@X#X          x         c x       oX@X@X@X                                          ",
"                                        @X@X@X            v         b v         OX+X#X                                          ",
"                                        oX#XXX            c         C V       |._..X].                                          ",
"                                        _. X(.|.          x         V x       ).  ].                                            ",
"                                          ).  ).          x         x                                                           ",
"                                                          x         x                                                           ",
"                                                          x         x                                                           ",
"                                                          x         v                                                           ",
"                                                        `.s./.    x.a./.                                                        ",
"                                                        (. X X    '.@X.X                                                        ",
"                                                       X X X`._.  #XOX`.(.x.                                                    ",
"                                                     X@X@X@X#X`.  OX`.OX@X@X'.                                                  ",
"                                                  x.+X@X@X@X@X X  #X#X@X@X@X+X                                                  ",
"                                                    @X+X.X#X      `.OX@X@X#X'.                                                  ",
"                                                                                                                                ",
"                                                                                                                                ",
"                                                                                                                                "
};
