/* XPM */
static char *result[] = {
/* columns rows colors chars-per-pixel */
"96 96 87 1 ",
"  c #2F2F2F",
". c #33322F",
"X c #3B362C",
"o c #2D2E31",
"O c #303030",
"+ c #393939",
"@ c #403726",
"# c #473B24",
"$ c #493D23",
"% c #433A28",
"& c #453F33",
"* c #5B471D",
"= c #5E481D",
"- c #6F4F0F",
"; c #71500E",
": c #7F5709",
"> c #7F580B",
", c #614715",
"< c #664A14",
"1 c #6A4D12",
"2 c #624A1C",
"3 c #6D5117",
"4 c #755414",
"5 c #795712",
"6 c #7E5A10",
"7 c #755619",
"8 c #76591D",
"9 c #78591A",
"0 c #544321",
"q c #4A4130",
"w c #544D3F",
"e c #5E5136",
"r c #5D523B",
"t c #65532F",
"y c #695429",
"u c #745923",
"i c #625332",
"p c #6E5D39",
"a c #4E4E4E",
"s c #534E42",
"d c #504F4E",
"f c #565046",
"g c #585141",
"h c #52504B",
"j c #4E4F51",
"k c #525252",
"l c #5C5C5C",
"z c #766543",
"x c #7F745E",
"c c #5F6164",
"v c #636364",
"b c #6D6D6D",
"n c #747474",
"m c #77787A",
"M c #7C7C7C",
"N c #815703",
"B c #855901",
"V c #895C01",
"C c #845C0D",
"Z c #805A10",
"A c #8F6001",
"S c #8E6209",
"D c #926201",
"F c #996601",
"G c #9D6A01",
"H c #906309",
"J c #A36D01",
"K c #868177",
"L c #838383",
"P c #8C8C8C",
"I c #90908E",
"U c #929292",
"Y c #9B9B9B",
"T c #A3A09B",
"R c #A5A5A5",
"E c #AAAAAA",
"W c #B3B3B3",
"Q c #BCBCBC",
"! c #C2C2C2",
"~ c #CACACA",
"^ c #D6D6D6",
"/ c #DEDEDE",
"( c #E4E4E4",
") c #E9E9E9",
"_ c #F2F2F2",
"` c #FFFFFF",
"' c None",
/* pixels */
"''''''''''''''''''''''''''aaaaaaaaaaaaaaaaaaaa''''''''''''''''''''''''''''''''''''''''''''''''''",
"''''''''''''''''''''''''''vblalbbbnbbbbbnlalnv''''''''''''''''''''''''''''''''''''''''''''''''''",
"''''''''''''''''''''''kakkUEnaMRRRRRRRRREnabRUkjkk''''''''''''''''''''''''''''''''''''''''''''''",
"''''''''''''''''''aaalPPEEEEbanRRRRRE!~WRnanRTPLPLvjaa''''''''''''''''''''''''''''''''''''''''''",
"'''''''''''''''''llvvbYR^(WRnanERWWRE^(WRmabRRERYYvllll'''''''''''''''''''''''''''''''''''''''''",
"'''''''''''''aaaaMYE^Wlv^/WRbamEW/~EE^/QRMabEREYvkUYTYMjaaa'''''''''''''''''''''''''''''''''''''",
"'''''''''''''jknLYRW~WnMYRPLvavLURRLLYRILvavLLLLnnYRW!Ybvka'''''''''''''''''''''''''''''''''''''",
"'''''''''''akdkW(QRRRRRYlajkhkkkkjkkkkdkkakkkkalYRRR~/!RPkakk'''''''''''''''''''''''''''''''''''",
"'''''''''alPPPPMnUEEEYbvkkE~~~~~~~~~~~~~!~~~~EkkvbUEWQUvnPUEWva''''''''''''''BBBBBBBBBB'''''''''",
"'''''''''lbEEERnlMYUYPbbvb/``````````````````/nvvbPYYYMlnRW^~nl'''''''''''''VBBVVVVVVBB'''''''''",
"'''''''jvYE^^WRRRnkkaM))__````````````````````_)_)nkkkMYRRRERRYva'''''jf>BBBBBDJJGJJGVBBB'''''''",
"''''''vnMLP!!PMLLPYUYE````````````````````````````WYUYPLMLLRRPLPPn'''gtyNBADVBDJJJJJJVBBBB''''''",
"''''ddmEPkcTYvkkkW````````````````````````````````````WkkkvYYlaW/UadaeBBBBGJABDJJJJJGVBBBBBBBB''",
"''jaYQWRTULvbQ^~~)````````````````````````````````````(~~~Qbvkkvmz4479BVFGJJABDJJJJJJVBDGGGDBBBB",
"''llY~WYYYPnn(````````````````````````````````````````````)Mvkksg8VVVVBVJJJJABDJJJJJJVBFJJJFBBBB",
"jkPRnkkkkjn)_``````````````````````````````````````````````_)ba7NDJGJGBBGJJJABDJJJJJGVBGJJJFBBBB",
"dkUELnmnvdb_````````````````````````````````````````````````_ba7BFJJJJBVJJJJABDJJJJJJVBFJJJFBBBB",
"akUEEEEEPab_````````````````````````````````````````````````_ba7BDJJJFBVJJJJABDJJJJJJBBJJJJFBBBB",
"akUE!^QEPab_````````````````````````````````````````````````_ba4BFJJJFBVGJJJABDJJJJJJBBFJJJFBBBB",
"dkLUQ^QRPjb_````````````````````````````````````````````````_ba7BFJJJFBVGJJJABDJJJJJJVBFJJJFBBBB",
"aakaLEEEPab_````````````````````````````````````````````````_bd4BDJJJGBVJJJJABDJJJJJJBBFJJJFBBBB",
"akbMMMMMbab_````````````````````````````````````````````````_ba7BFJJJGBVGJJJABDJJJJJJVBFJJJFBBBB",
"dkUEnakkkab_````````````````````````````````````````````````_ba4BDJJJGBVGJJJABDJJJJJJVBFJJJFBBBB",
"dkURYUUUMab_````````````````````````````````````````````````_ba7BDJJJGBVGJJJABDJJJJJJVBFJJJFBBBB",
"dkUEWWEEPjb_````````````````````````````````````````````````_ba7BFJJJGBVJJJJDBDJJJJJJVBFJJJDBBBB",
"dkUR~(!EPjb_````````````````````````````````````````````````_ba7BDJJJFBVFJJJDBDJJJJJJVBFJJJJBBBB",
"dkbMPULMbab_````````````````````````````````````````````````_ba4BFJJJGBVJJJJANDJJJJJJVBFJJJFBBBB",
"dkkkkkkkdab_````````````````````````````````````````````````_ba7NFJJJGBBJJJJDBDJJJJJJVBFJJJFBBBB",
"dkR!RUUUMdb_````````````````````````````````````````````````_ba&@4JJJFBVFJJJANDJJJJJJVBFJJJFBBBB",
"jkW^!WWEPdb_````````````````````````````````````````````````_ba+o2CHJJBVJJJJDBDJJJJJJBBFJJJFBBBB",
"jkUE~/!EPab_````````````````````````````````````````````````_ba+ O =JJBBGJJJANHJJJJJJVBFJJJDBBBB",
"dkUEW!WEPjb_````````````````````````````````````````````````_va+ OO%21BBGJJJDNDJJJJJJVNJJJJFBBBB",
"dkURRYYRLab_````````````````````````````````````````````````_ba+O.XXO$NVGJJJABDJJJJJGVVGJJJFBBBB",
"dkUEMllvlab_````````````````````````````````````````````````_ba+O2HSSSBVJJJJABDJJJJJJVBFJJJGBBBB",
"dkMUMmbvcab_````````````````````````````````````````````````_ba&#;JJJGBVGJJJABDJJJJJGVBFJJJFBBBB",
"jjakR/!RPab_````````````````````````````````````````````````_ba4BFJJJGBVGJJJABDJJJJJJVBFJJJFBBBB",
"aknLRQ!~Tab_````````````````````````````````````````````````_ba4BDJJJGBBGJJJAVDJJJJJJVBGJJJFBBBB",
"akUERRQ/Wab_````````````````````````````````````````````````_ba7BFJJJGVVGJJJABDJJJJJGABFJJJDBBBB",
"akUEREEWUab_````````````````````````````````````````````````_ba4BFJJJFVVJJJJABDJJJJJGVBFJJJFBBBB",
"dkMPPPURPab_````````````````````````````````````````````````_ba7BDJJJGBVGJJJABDJJJJJJVBFJJJFBBBB",
"ddddjamEPdb_````````````````````````````````````````````````_ba7BDJJJGBVGJJJABDJJJJJGA:FJJJFBBBB",
"ddmLYEUbvab_````````````````````````````````````````````````_ba7BFJJJGBBGJJJDBDJJJJJGABFJJJFBBBB",
"dkUE~/Ykkab_````````````````````````````````````````````````_ba4BDJJJGBVJJJJVBDJJJJJJVBGJJJFBBBB",
"jkUEEEEYLab_````````````````````````````````````````````````_ba7BFJJJFBVGJJJDBDJJJJJGABFJJJFBBBB",
"dkURERREPab_````````````````````````````````````````````````_ba4BFJJGGBVGJJJABDJJJJJJABFJJJFBBBB",
"djUERRRRPab_````````````````````````````````````````````````_bd7BDJJJGBVJJJJABDJJJJJGBBFJJJFBBBB",
"djbbbbLEPab_````````````````````````````````````````````````_ba4BFJJJGBVGJJJABDJJJJJJBBFJJJFBBBB",
"ddkkllmTLab_````````````````````````````````````````````````_ba7BFJJGGVVGJJJABDJJJJJJABFJJJGBBBB",
"jkPYYYMlkjb_````````````````````````````````````````````````_ba7BDJJJGBVGJJJABDJJJJJJVBGJJJDBBBB",
"dkUEEEPbvab_````````````````````````````````````````````````_ba7BFJJJGBVJJJJABDJJJF551<HJJJFBBBB",
"dkURRRRRPab_````````````````````````````````````````````````_ba4BDJJJGBBGJJJDBDJJJHX OOZJJJFBBBB",
"djUEREREPjb_````````````````````````````````````````````````_ba7BFJJJGBVGJJJABDJJJGZ5XO$0ZJFBBBB",
"jkLYYYYYLab_````````````````````````````````````````````````_ba4BDJJJGBBGJJJDBDJJJJJF%OX%7JFBBBB",
"jdlklklkkab_````````````````````````````````````````````````_bd7BFJJJGVVJJJJABDJJJJJJ%O9FGJFBBBB",
"ddvnbnbbvdb_````````````````````````````````````````````````_ba4BFJJJGVVGJJJABDJJJJ94XOZJJJFBBBB",
"jkUEEREEPdb_````````````````````````````````````````````````_ba7BDJJJFBVGJJJABDJJJHXOOOZJJJFBBBB",
"dkURREREPjb_````````````````````````````````````````````````_ba7BDJJJGBVGJJJDBFJC*0ZZ4-*06JFBBBB",
"dkUWERREPab_````````````````````````````````````````````````_ba7BFJJJGBBGJJJABDJZo%FJVB#o3JFBBBB",
"dkQ/QREEPab_````````````````````````````````````````````````_ba4BFJJJGBVJJJJABDJZo%FJVB#o3JFBBBB",
"jkQ/RMMLnab_````````````````````````````````````````````````_ba7BFJJJFBVGJJJABDJH2244<,,2CJFBBBB",
"jkQ/Lddjdab_````````````````````````````````````````````````_ba4BDJJGGBBGJJJDNDJJJHXOO.CJJJFBBBB",
"dkbmLPUPMab_````````````````````````````````````````````````_bd&#5JJJGVVJJJJABDJJJJCC--HJJJFBBBB",
"djllPEREPab_````````````````````````````````````````````````_ba+o2SFJGVVGJJJDNDJJJJJJVBFJJJFBBBB",
"jkPTRRRRPab_````````````````````````````````````````````````_ba+O..2JGBVGJJJDBDJJJJJJVBFJJJFBBBB",
"dkUERRW!Ydb_````````````````````````````````````````````````_ba+  o#34BVGJJJDBDJJJJJGVVGJJJFBBBB",
"jkPRRT!/Wdb_````````````````````````````````````````````````_ba+ .XOO#NVGJJJABDJJJJJJVBFJJJFBBBB",
"jdcvvcY(Wkb_````````````````````````````````````````````````_ba+o2CSCCBVJJJJABDJJJJJJVBFJJJFBBBB",
"ddlcccP!Yjb_````````````````````````````````````````````````_ba&X;JJJGBBGJJJABDJJJJJGVBGJJJFBBBB",
"dkITTRMkjab_````````````````````````````````````````````````_ba7NDJJJGBVGJJJABDJJJJJGVBFJJJDBBBB",
"djUERRUMbab_````````````````````````````````````````````````)la7BDJJJJBVGJJJABDJJJJJJVBFJJJFBBBB",
"dkUREEEEPab_```````````````````````````````````````````````''aa7BFJJJGBVGJJJABDJJJJJJVBFJJJFBBBB",
"jkUE!^QRPab_```````````````````````````````````````````````''jk7BDJJJGBVJJJJABDJJJJJJVBGJJJFBBBB",
"dkLUWQEUMab_```````)^^^^^^^^^^^^/^^^^^^^^^^^^^^^^^^^^^^^(``''ah7BFJJJGBVGJJJABDJJJJJJVBGJJJFBBBB",
"jdjkkkkkkab_```````!lklklkkllkklkkkllkkklklklklkkllkkllkl''''ad7VDJJJFBVGJJJDNDJJJJJJVBFJJJFBBBB",
"ddnMMMMMbacTTTRRRRRPvvbnbbbbbbnMMMMMMMMnbcjaakcvvvvvvnbvlaaaaad7BFJJJGBVJJJJABDJJJJJJBBFJJJFBBBB",
"jkUEREREPajaaaaaaadlmMPUUUUUUUYERRRRRRRYUbkkdlnnnnnnLILmbaakkad7BDJJJGBVGJJJDNDJJJJJJVBFJJJGBBBB",
"dkURRRREPkdjjjaaavLLPPUUUUYRRRRERUUUURRRRULLLmkkkknnLULnvkkllkd7VDJJJGBVGJJJABDJJJJJJVBGJJJFBBBB",
"jkLUYRRRPdkvvvvvvnLLLMMMMMPUUPUPPMLIUYYRRYUUULvclvvbnLMnvkkvvkd7VDJJJGBVGJJJABDJJJJJJVBFJJJFBBBB",
"dddkPERRPjlYRRRRRnaakkkkkkkkkkdkkdlPUIUTRRRTIIPIIPlakkvmbdknnla7BFJJJGBVJJJJABDJJJJJJBBFJJJFBBBB",
"jkPYLmmmbjlTRWWWRYPPMMMMMMMMMMMMMMmbbbbnmmnnbbbbbbkkklllldkbvka7BDJJJGBBGJJJDBDJJJJJJVBFJJJFBBBB",
"akQ(LkkkkacYE!!WRQ~QRREEREEEEEREREYljkdkkkkkkkkjkkkklcljaakllkk7BDJJJGBBJJJJABDJJJJJJVNFJJJFVBBB",
"akYWRYUYKklREEEEEEEERW!!EEQ!WRRRRERYYYYYYYYYYYYYYYYYbdjdaakkkda7BFJJJGBVGJJJABDJJJJJJVBFJJJFBBBB",
"jkYWERREPjlLPPPPPPPPPURRUIRRYPIIIPPUPUIUIUPIIIIIPIUPvddjjdkadjd7VDFGJGBVGJJJDBDJJJJJJVBFJJJFBBBB",
"kkQ(QRRRPjakkkkkkkkkkkjkddjjjkkjkkjjddjjdjdjjkjkkjkdkddjdaadjdh7BBBDJGBVJJJJABDJJJJJJVBFJJJFBBBB",
"dkMPMnnnvkjakaadaaaddddjdadjaaajddddaakajjddddjdjdddjdddddddkaaettt8DVBVGJJJABDJJJJJGVBGJJJFBBBB",
"adaaaaaakjjaaaaaaadjddddjdjdjaaddddjdaaaajddjdddjaddddjdddjdaaajjaji:CBVGJJJABDJJJJJJVBFJJJFBBBB",
"''''''''''''''''''''''''''''''''''''''''''''''''''''''''''''''''''''siBVVVGJDBDJJJJJGVBFJJJFBBBB",
"''''''''''''''''''''''''''''''''''''''''''''''''''''''''''''''''''''jr7774HFVBDJJJJJJVBFJJJFBBBB",
"''''''''''''''''''''''''''''''''''''''''''''''''''''''''''''''''''''''dddd;VVBDJJJJJJVBGJJJFBBBB",
"''''''''''''''''''''''''''''''''''''''''''''''''''''''''''''''''''''''''adiitt7AAAAJJVBFJJJFBBBB",
"''''''''''''''''''''''''''''''''''''''''''''''''''''''''''''''''''''''''vccvcvp:NZCJGBBFJJJFBBBB",
"````````````````````````````````````````````````````````````````````````))((()TssseVVBBJJJJFBBBB",
"``````````````````````````````````````````````````````````````````````````````~LPPKu777CGFFDBBBB",
"``````````````````````````````````````````````````````````````````````````````````/ldaj7BBBCBBBB",
"``````````````````````````````````````````````````````````````````````````````````_!Q!Qxiiiiiiii",
"```````````````````````````````````````````````````````````````````````````````````````Laajjjjjj"
};
