/* XPM */
static char *b8141f6e8668470d866a6cf7bff5bb64dvtwC6v624jfImPA[] = {
/* columns rows colors chars-per-pixel */
"96 96 46 1 ",
"  c #21551E",
". c #235A1E",
"X c #26611E",
"o c #29651F",
"O c #204724",
"+ c #234B25",
"@ c #244D28",
"# c #225521",
"$ c #265D23",
"% c #285F24",
"& c #275129",
"* c #285329",
"= c #2C5B2A",
"- c #276022",
"; c #2A6423",
": c #2D6A25",
"> c #2C6529",
", c #2F6C29",
"< c #306E26",
"1 c #31642D",
"2 c #316E2A",
"3 c #2F7025",
"4 c #2F7028",
"5 c #317226",
"6 c #347927",
"7 c #337429",
"8 c #367A2A",
"9 c #387E2D",
"0 c #326531",
"q c #356931",
"w c #367730",
"e c #397333",
"r c #377A30",
"t c #3A7D32",
"y c #3C7439",
"u c #3E7939",
"i c #407D3A",
"p c #378027",
"a c #3A832D",
"s c #3E8A2F",
"d c #3C8431",
"f c #3F8A31",
"g c #408F2F",
"h c #42922F",
"j c #408D31",
"k c #429231",
/* pixels */
">9dX$$-5ssg:-%%$;7689;%$%,775769a;:777,$-9f8;$$-49d.$=$4fsj:-$%$:7669:%%$:77676aa;:777,$-9f8;-=&",
"is9;$$$:8ps8;$$$<772;o%%$%:768865;:77<$$:9as:$.:ss9:-$-:6ps8;-$$>672<.$$%>:276675;:77<$$,8as:$%&",
"e867>$$>588s8;$>:27:.$;;$$#%27775>$$$.$$:8587>$;8865;-$>568s6>-->77; $;;$$ >27755>$$$.$$,8565$$&",
"15695$$$;:68d5$-:77; %7t:$$#>77:-%# $$$$:5:45;-:67692-$-;,68d5$>:77% %7t:$$ >77:-%# $$$$:5:47>$=",
"27872$%$$-767:-::<7>$-2ss:$$#:7:$$$<d7$-,7:44;,a8687:>$$$-577:-;:<2:$$7as:$$#:72-$$5d7$-:7:47;:y",
"q777:$%% .;77:-;;:<;--:6ad:%$:7>--;aj8--,7::4;,96677;$$$# :<7,>;;:<:$$<6aa:$$>2:$-;aj8--,4:47-,e",
"q22.$-;$$$$;5:$$$:<;>$<75s:$$$2,-;6sa<-$;,::4:,767:.$-;$$$$:2:$.$:;;-$<76a<$$-72-;7sa<-$>,;,,:,q",
"q2.#$59:$$#$>;$$ .;;-$;7767-$>5,;7s97:-$#$--.at772$#-5t:%##$:;-$#.::;-;7765>$-2,;7s86:$%..;$$t81",
"*##%:9a2%$$##$$-$.$$$$-:575o-$-$;985::o,$.;--887>$#%:8a2%=$#$$$-$ .$$$;:565:-$-$;895<;;,$.>$-87q",
"O#=$>77::;$$##:97w  .$-::5797-#$;75::;:d7;->-77, #%->77:;;$$ #:rr7. .$;::45t4-#$:55::;:d7:;-;770",
"&=%$><76aa:$$:9a85-7d:;::;:3t4-:863:;;;afd--;,:$$$$$>:76aa:$$;8a87o5d:-;;::5a4-:86:::-;addX--,>@",
">--%--769a2$$2876<;5fs:;:o:::4;,86o;>:5689---# $:-$$>-77aa4$-2867<-7js<;:o;::4;,85o:;:<6p9;$$=#@",
"ur,$$.5787,-$:77,;-:paao.:;;;;-:2::$ :9577-$$##;dt:$%$2787,--,774;-:paao.:-;;>-:2::$.:9575-$$ #@",
"eda:-.,277:--:77;.-:88s:. # ##$>:;%$$:5:75>%$$$;8da;-$:577:--,77; -:88s3. ####$;:;$#$:5<75>$$$=&",
"278;$>;;:5557777>$$:766st%####$$$$ #$:::57>$=--;769;-%;;:5557777>.$,766dt>####$$$$ $$:::57%$=$%*",
"q75;$$$$-:8js852;$->7789d7%$$=$$   $$;;::5-$#->:577;$$$$-:8js84,>$$:7788a7%$=%%$  #$$-;:25>$$$-=",
"277;$%%#  :865:;-$$$>45672-%$$-5a9j<.;::<2;$;;:<875-$%$#  ;865:;-=$$>4666,---$-5apj2.;::25;$=;;=",
"076;$$$>:;-5<:>$%-$>.X775;-;4:o7jga9o;;o<7:-%;;o577:-%$>:->5<:>-$$$>.-4w4;-;4:o3jga9:o;o:5:$%;;=",
"=26w<$$6ja;:-$ +$$%784:7-%>9ja5:2562;>><;7<$$$;::578:%$7fa;:$$ #$%;494:4-$>8fa7:2762;>><:52$%$;=",
"=<77:-$<ss5.# #$$%%2dao. $-78sf4..*.$$ ;o<2<$$-::577<$-<fs5.####$%-,d9XX#$-88ff4. .*$ .;;:7:$$%=",
"=<77<-o:8pd:#$%$%%$-:9d,$$o76692  .:;#.;;<7;$->;o567<o-<69s:.$$$$%$>:9d,-$;766a,  .<:$ ;:o6<$$>=",
"=<77785:769f5>$$%$$$.7ad:$-7777:.<9gj<$:o<2<-$>-o<7776<:769d6$$$=%$#.5ad>-;4767:;;9ga<$;;<2:%$%=",
"=:5679d5:56fa:-$=$$>:767o$$>577:.7jj8<o>o<7<$$$.;:7668j<:76ss;%%$%$>:767;--;447:o7ga9<$:;<7>%%#+",
"=;576692.$58pa:$$$-,7767:$$$#::>:7677<$.;;7>>;#.;<<67692.$569d:%%$$:7866,-$#$>,>;w867<$.;;7<->$+",
"=:<<267>..>68a7-$$-,7868a6-$   $;7777<$$>;5:;t,-;::<587,$.;78a7;%$%:7778s5;$#  .-7777<$$;:2:;t,&",
"+.:o:<<;;%>7688>$$$,77769j5-;>7<o2772$%$$$%>;8,$.$;::::;$$:7867;%%%,77668f4->:75;7772$$$%#%>:71#",
"+ $;:;>%=$:7775-$%$,776539g8569j6<<$.;-%# #;:52;  $;:;;$-%:2777;%%.>787<:psa:6as5<2o.;%%$ #;:72=",
"&* .;;.#$$$;777>$$-,662oo5aja66gd.  5d7>$#$,779d;$ $>-$$%$$>774>$%;<775:o5afa68fa.  4d7>##$<779u",
"q1.  .o7;%$-25;$-%;464::o5796<765$$$8af7$$$:766a9,$ #.X8>%%-52;$%$:775o:o<6a7:685$$$8af7$$$:675e",
"i7.$$79g5-$>>$$$$-,44:;:;<77<o7<:$$>5787>%$:7656s5$#$7aa4-$->$$$$;<2<<:;:<77:;5<:-$;5787;=$<7661",
"=>$%7j789-$%# $$=->::o;-. >7:;7<;-$;5587:$$:7676::$-7d88r;$$  $=$%;<oo;-$#;5:-5<;-$;7585:.$<777q",
"1>%.77665>$-,7;$->::;::  #.7>o2<;-$-;:pa8:$>5755<;$-48664;-;,4:$$:o;::># #$7,;55;$$-;:8s9:$%2621",
"0,%%:4777;;:ff9;%::;;-#$---,;-55;-$=$;fhf4$$;:o<7<$$:2775;-:sj9;->:::%..$--2:-5<:$%$$;fkg<$.:::=",
"=-$%$$,7774o687;$$-;;$ :d7$#$>7:;-$$$4dp87->::::;;$$%$,7774:588-$$-;>$ :d7-#$-72;$%%$5s885->;:;=",
"=>$%%##:76,-:47,$ #$ .-af7-$$,75:-%%-:6677-$-:;;:;$%%$#<772-:772-###  ;9j5$$$:7<;$$%-:7677$$;:;=",
"*=-$>-$$,7:-$,79,$###;8a8,$-,984;-%%$,7757-#.-;:;;%--%#$27:%$:79,$###-9a9:$$,985:-$$>:7772-$.;;=",
"@#-4d:$#$,,$-,76,$$$-4d6:%%$,w4:;-$%-:77:--$##--#$$7a:%#$2,--,76,$$%$5f7:$$$,77:;$$$$:77:-%$#.%=",
"@$>af7-%-7,-;94:>$$$;w5$#%$%:4,;;55;->:83;-:,####$;9j7-$-2:-;64:;$$$>r,.#$$$>5,-;55;$;:9<X$:2# @",
"&$-798-%-7:-9f6$$$>$$$.$--$%--$#.dj8-$-da:-8d:..$%;789-$>,;;9k6$$---$$..---$>>$ .sj9-$Xda:o7d;#+",
"&$>474>%%#$;7ad:;8s6-  :ad4$$###-688;%-8f3;,86a9;$-777;$$$$>7ad;;9s6-# :ad5>$   -798-$-8s5:<76de",
"*$:677::%$#:487;5asf7-$9fst;$$=$;577,--78aa68afa<.<677,;$#$:567;4daf7$$9aft>$$$%;577,--59aa66fft",
"&,d88582%%>8665;:8598;;8864;%$%-;5688>-56af98fa6o<966772-->8675;,88p9;;9p84-%=$-;5888>;57af88f82",
"*;5:577:--:767;-:7787o,7877;%%-787784,--768:-4w4o>73267<-$,867;-,4664;:7687-$%-777767:-;468,-47q",
"*>;::27,-;487,$$>,575-2774,-%$4f87,,,>%$:77;#$,4;;;;:<7<>-,77:-$>4447;:774,-%$5d975::>$$:67; $,0",
"*%;:;o<:-7977:-$..;,7-,2:$$$%;9962$   %%:7w:##$0o%:;::<;>7977,$$$ -:2;,q>$$$$;9982$  $$$:77># *0",
"*%::::;-;w7,-$-,96X.$%>% ##$%-55,$$584-%$:4:->$#$;;:;:;;-77,-$-:p6XX---%##$$-;57,$#58:--$,w:$>$@",
"*$;>;%;--,-##$;aafd4$=$$$;::::8:..;ass3-%#->->##=;;;;->->:%##$;tssd4$$$$$;::336:..;sss4$$$$-->#O",
"*  ;%  $##  #=;48pf7-$$$-7jshhg3 -7fpa6-$###%##$$  ;$# #$  ##%-7wpfw-$$$-6ffshf3 .7fpa6;$# $% @&",
"*:2.##$:88;$$%%$<7aa7;>$$5aaaaap5o2a688;-;5,$=$$$<2.$#$:88:.$%$->89a8;%$$59aaaa85;59888;-;7,$$=*",
"=9jo$%$7jgs:$$%.;769so$%$:76566ad::7672;-9f8--$-:8j.#$$7fjs:$$$$;769ao%%%:77676ad::7672--9f8--#*",
"ij9%$%$<7ag6-$$$>765:$$$$>:787787o:772$$:9ps,$-;ag9;$%$,8as8-$$$:76<:-$$$-:776767o:572$$:9aa,%=&",
"e667---;579s7>$%<77>$$--$$ >77775;$$>.$$,7594--;9867-%$:578s7>$$<77<$$-;-$$;78775-$>-$$$,7494-$&",
"16692%$=:<69s,->;76; $2r:.$#;77:-># #$$$,4:55>-;76892$$%:<69d5$>;77; $2r:$$#>57:>-# $#$-:7:45>$*",
"q768<%$$$;568:--;<7>$$7aa:$$#,7,-$$:d7$-,7:,5;:98777<-$$$;568:--;<7>$$7aa:$$#,7,$$-:d7-$,7::5-;y",
"q767>$%$ .:77:-::<<>$-<6aa;$$;5>-$;aj7--,5:45;,d6677:$%$ .:77:-::<<>$-<6aa;%#>7>$-;ak7--,7:55>,y",
"q<2.$%;$$#$:7:$$.<;;;-<76s:$$>7,--5sa5-$>5::,::7672-%$>$$#$:7:$$.<;;;-<78a,--;7,--5sa:-$>5::5;,q",
"q2$#$:9:%$#$:;$$ $;;;$>7767-$>2<-7s96:$$$.-$X9t772$#$:9;%$#%:>$# $;;;$>7667-%-2<-7s96:$$$.-$Xt8q",
"*$#$:8t5%$# $$$$$ $$$$;:576;$%>->9p65:-:$.>$$887:$#$;8d2$=##$$$$$ $$$$;:<67;-$>-;ta6<:-:.$>$X87q",
"+#$$:77:->$$ $;w72  .$;::578<$ $-75::;:t,;>-;57, #$$:77<--$$ $:772  .$;::5682$ $;55::;:d4;;;-770",
"&*$$:276a9;$$-9a97o<9<;;o:<7a:--87::;-:dfa---4,%$$$$:577a9;-$;8d97o29<;;:;<7t<$-78::;-;dda--;,,&",
"=--%-:58as:$$2986<o7ga<;;:;<<7;285::;::69t-$>$..:>$$>-58ad5-$2887<o6ga3;;;::<7;285::;::6at-$>-#@",
"u7:$$.2778:>$:762;$<aa9oo;;o;:$<<<o$.59577;-#  ;t7:$-.5767,-$:777;.<aaaoo;;o;>o<5<;$.59577;$$#+@",
"edt;$$,577:$%:77;$$:69j;   ###%;:;%# :7577-%$$$;9f9;$$,577:$%,77;..>68go.  ###$:;;%# :7575-$$#$*",
"269:$$>:55<<<772;.$<767j9$####%%$$#$$:::,7-%%$$;788:$$>:5554,577>$;<766i9$####$%-$#$$:::47-$=%$*",
"q75-%$$$;:6fsp5:;$$:766ad7$%%%$*   $-;o<<7-$$%;:266;$=.%-:8jf95<-$%>777ad7-%%%$## #$$-:o77;$%%%=",
"q77%%%$# .,886:;->$$,47664-%$$-,899:X>:;<2;$%;::572;$$$  .:p85:;;-$$,77684-$=%-498p,o;;:<<;$%;;=",
"177:$$$$;$;45:->%%$$XX774;-;,;-4fsj9;-;:<7;$=;:o577;.%%%-$;55:->%%%$.o775;$>>;-4fffa;;::<7;$$:;=",
">277:$>7fp;:;$##$%-74,44>$-8fp347877-:<;o72%;.:;<556<$%7fa;:;$# $$%75:47;$-7fp336874;;;;;7<$$%>=",
"=<77,--4ff4X# #*$=$4dt--$$-rasf3-$$$$$$;:<2:.$;::<772$$7ss4.# @$$%-4f9o-$$>8aff,-$$$$$$-;<2;$$;=",
"=<87:;o:6ad;#$%%$$%:49a;$$>768a4 #..>$.;:o7>%%;:o<87<o.<8aa:#$$%=%%-78a;$$-558a5  .;-$$;;:7:$$==",
"=<7675::66pd,-%%$$$#$6dd;$;5764,-;8f9;-;oo7<$$;>:<6765<<76ad,-%%$$$$$7da:-;5857:$;afa:-;;<2<$$==",
"=;7669d5,76fa;-$=$$-:468;$$:477,-:jsa5->:<7>%$$.o<7769d<446fa;-$$$$-:778;$%;777,-:faa,-;o:7<-$$@",
"=o76669<.;66aa:-$$%:7667o;$$$;2>-8887:$$;:2:-;. ;;56669<.o59aa:$$$=,7786:X$$$;2;;8887:$$;<7>->#O",
"=;<<767>$.:78d4-%%$:7766p3;$   $>7665,-$;:72:9>;;:<<767<$ ;68d5-$$$,76789:-$## $;7587:-$o<2<:9;&",
"&$;o<<2:%$:768r;%=$<7766af4--;,:;5772-$%%$;;;92.$%;o<<<:%$:766r;$$-,78669f5-%;::;7772>$$$$=;;w2&",
"O %:;;;;%$:7764>$$$<w76<3pa8,8aa525;$$--###;;22;  %:;;>-$%>7674;$$$,7775:9s857as444;.$>$$  ;;<<=",
"&# =;;$.$$$:774-$$-,677<o5sfa68sd.. :d5-##$2778to# =;;.$%$$:574>$$-,845:o6jg969gaX  :d5$##$286wu",
"11  ...<;=$$,7>%$$;775o;o48a846p8-#$8fd5$$%<67697<# ...<>$$$77>%-$:487o:o58a6<688$#$8sd7$$$>786e",
"i7$#.<9j,$$>,$#%$$,75<:;<<77:;5,;-$-5897-%$:7666j7%$ 29g:>$>>$#%$-,44,o::<77:o52;>$;5797$%$<7652",
"1;%%2j888;-%# %%$>::o<;;$ >7:-75;%$>7767:$$,7666<;$-5d998;$$# $%$>,>:;:-$ ;7:o2<;-$;5866:$$<777q",
"=>--49676--;:4;---;::;;  #.,:;5::$$$::6a6;$>2655,;$-58683;-;:,;$%;;::;;. #.2:;5<;-$-;:8a6;$>5751",
"0>%$:7774;;;ffr;>>:;;-.$$$>2:;55;-$%.;shg<$$<2::7,$$,7774o;;ff9;%;:;;-$$$-;2,-7<;-%%$;shk:$$:<:=",
"1-%%--:7644;699-$%-;>$ ;95%$$-72;$%$$5fa95$$<oo:,>$$-$,7684;689;$%:;;$ ;t5$$$-52;%%$-5fa85>-;<;=",
"*>%%%#$:783-,44:$ .-. -9j7$#$,7:;>$$-:7867--;;:;:-$$$$$,77,;444,$  $. -9j5$ $:7<:%$%-:7765-$;o;=",
"=%%%$$#$47,$-,6r<$#+ -8a9:>-:98::-$$%:7875%#$;;:>$$--$#$47,$$,69<$# #-89t:-$,r8<;$$$%,7877; .>;=",
"@$-,a:$$-4,--;66<$=$$4f6:$$$277<;-$$$,77<-%$ $=;.$-:a:$#$7,$-:562$$#$4f8:$$>277<;-$%$,77<;=$ .==",
"O$;tf7-$-2,$;64,;$$$;w4-$$%$:25;o::>-;:8:--:> #$#$:9f6$$$7,$;75<>%$=-87$$$$$:5,;;:<-$;58<.%>>  &",
"*%;49t;$>2,-8f6$$%%%->$.$$$$->%..df6>$Xda;-7d;  $$>58t;$>2:-8j7.$-$%$>$.$$$$;;$ Xaj8-$.dao.7j; +",
"*=-467;$%$$;8dd;-895o  -89:>$$ #-888>$-9f3o58597>$-767-$%$$-8dd;-8a5X  -89:$$$ #$8a8-$-9j7o5657e",
"*$:777:;-##,766;5sss<$$8sg9;$##$>567:$;7paa58sja:.:775::%$$;688;,sss5$$8gg9;$$$$-575:$>76a956ggt",
"*:d87674-$>8667;:8699-;9865-#=%$;5787;;58as86fa6o:a67872$$:7665-:8889;;8867-$=$>;5888;;56ag98g8q",
"*:7,777,$$:667>-:7687-,7685>-%-557667:-;58a:;777;:7<577:-$>777:$:7765;:8785-$$$:57587:-;769<;w72",
"*%:o:47:->:77:$$>2575>:775:>%$4d9754,>$$:67; $72;;;::55:>-:77<.$>,775-27772>%%<d9752,;$$:77; $21",
"*%::::5;-7977,-$$ ;25;:2,$$$%>ta77$# $$%:75:  $2;.::::2:-7967<%$#$::7->7:$$$$;9985$  $$$:77>  =0",
"*%<;:;:--77,;>-:74X.-$>$##$$$;475-$:7:$$$,7,;=$#%;;;;:;--772;=%<74.X$$>> #$$%-777-.:5:$$>27:$;#*",
"*%;;;:->>7;$#$;9kfa,$$$$$$--X:5:. $aka:$$$>>;1# $%:;:;:;>2<. $;9ks9:$$$$$$--;;5:$ $aks:$$$;1;1#O"
};
