/* XPM */
static char *_849638760994984fd91922792fb9c8bBqVqCOELlx7583Sj[] = {
/* columns rows colors chars-per-pixel */
"96 96 88 1 ",
"  c None",
". c black",
"X c #010101",
"o c #020202",
"O c gray1",
"+ c #040404",
"@ c gray2",
"# c #060606",
"$ c #070707",
"% c gray3",
"& c #090909",
"* c gray4",
"= c #0B0B0B",
"- c #0C0C0C",
"; c gray5",
": c #0E0E0E",
"> c gray6",
", c #101010",
"< c #111111",
"1 c gray7",
"2 c #131313",
"3 c gray8",
"4 c #151515",
"5 c #161616",
"6 c gray9",
"7 c #181818",
"8 c #191919",
"9 c gray10",
"0 c #1B1B1B",
"q c gray11",
"w c #1D1D1D",
"e c #1E1E1E",
"r c gray12",
"t c #202020",
"y c gray13",
"u c #222222",
"i c #232323",
"p c gray14",
"a c #252525",
"s c gray15",
"d c #272727",
"f c #282828",
"g c gray16",
"h c #2A2A2A",
"j c gray17",
"k c #2C2C2C",
"l c #2D2D2D",
"z c gray18",
"x c #2F2F2F",
"c c gray19",
"v c #313131",
"b c #323232",
"n c gray20",
"m c #343434",
"M c #353535",
"N c gray21",
"B c #373737",
"V c gray22",
"C c #393939",
"Z c #3A3A3A",
"A c gray23",
"S c #3C3C3C",
"D c gray24",
"F c #3E3E3E",
"G c #3F3F3F",
"H c gray25",
"J c #414141",
"K c gray26",
"L c #434343",
"P c gray27",
"I c #464646",
"U c gray28",
"Y c #484848",
"T c #494949",
"R c gray29",
"E c #4B4B4B",
"W c #4C4C4C",
"Q c gray30",
"! c #515151",
"~ c gray32",
"^ c #535353",
"/ c gray33",
"( c #555555",
") c #585858",
"_ c gray37",
"` c #606060",
"' c #656565",
"] c #6C6C6C",
/* pixels */
"                                                                                                ",
"                                                                                                ",
"                                                                                                ",
"                                                                                                ",
"                                                                                                ",
"                                                                                                ",
"                                            M         n                                         ",
"                                            j        d    n                                     ",
"                                            85      y    z                                      ",
"                                             5    MVVz  z                                       ",
"                                    n  j     8d   KMq   y                                       ",
"                                    8q d      <<  yq   ny                                       ",
"                                    jdn< K     85XX     <q                                      ",
"                                      &$88      V&&     ;                                       ",
"                                      5$X&       <$q   <<                                       ",
"                                      ndX; z      X$   q             /                          ",
"                                       d58 <      ;X5  V      YY    /`_  '                      ",
"                                       <8njM      y$< dd     d      FV   y                      ",
"                                      ~MX;qW       <& ;     q      85    y                      ",
"                                 ~ Vzzz5XX$<   zj  ;X<X     5      ;j   n                       ",
"                                        q&X5    y   XXX M  q      85    8                       ",
"                              z   n]zjn q&X;    q  XXX$&;y;;      8     5                       ",
"                               d          X$     5;$ XX$   ;     y   ny;5K                      ",
"                               yd         $X$5    $$ $X         jP Fzq                          ",
"                                8ydd5qjFVq;X$&;&XX&8&$$ Y j    yX8zM                            ",
"                                   y$X8KMz/&$   $X& $$$       5$$d                              ",
"                                dnd   5F  <$X   <8X& &X      &;                                 ",
"                                       dV  XX&  ;5q$ $$   ;58d                                  ",
"                                       8z   $X&<X  ;X$X&<&5M                                    ",
"                                       5;yz ;X$ &$  XXX$           z                            ",
"                                      y&;  d$XX &$   XX;     z    8                             ",
"                               5jqqq;&  <M  8XX $;Py &X$     8    8                             ",
"                                        &<8  $X< $V  ;X<      d  y       q8                     ",
"                            y           &X&   X$ &V  ;X<        5d      5q                      ",
"                            Fn 8<   8<  XXX$& XX $V  <X&      );&      <$<                      ",
"                         d   P  d&$X5Pz58<X$&X$XXXd  ;XX<;$$&8V;   <;8$<       8                ",
"                     ;       5     $&d  Vy   <$XXX&  &XXX& $XX&XX$XXXX        <<                ",
"                     <n   <  85    <    ;      $XXX  $XX&   $X$   &&$X$      ;;                 ",
"                    Mzj&8 y   dV   <5  q       &XXX&<XXX  &$$         <&X&&<;&                  ",
"                    qy &$ d   Fy5   8         &XXX; $XXX &XX&           <&$<j                   ",
"                     ;  <dj8    &5  M          XXX  ;XX <X$  5              5                   ",
"                     $;  dz<     &&dY       q  $XX Y;XXX$X  <~Vq             q8                 ",
"                   ~/q8    &&     $8n          ;XX Y<XXX$    jFWq                               ",
"                      q<    $5     $;          &XX  $XX$         <                              ",
"                       &;<8 <$;<    &          $XX  XXX&         5                              ",
"                   Vzj  8   ;X$     $$         $XX  XXX                                         ",
"                       d&     X$&   z5$y       XX$ $XX5                                         ",
"                        &X;  ;&XX&    $X;      XXX XX$                                          ",
"                  55yjdy5&$&&<  $X<    &$&8    XXX$XXX    8;5                                   ",
"                   dV      $X;   X$    58;$&<q&XXXXXX&;&$5                                      ",
"                      Mj     $<   XX   ;   nq$XXXXXXX5   8;                                     ",
"                MKVn   yyz5< ;X$X$j8X$        XXXXXX$     5&8y8<5  jKz5                         ",
"                      Vnny<<yj8<&$58XX$       ;XXXXX       5M          5                        ",
"                     z             $X$XX5      XXXX$       8                                    ",
"                                      XXX$     XXXX&       5                                    ",
"                                   y  <5&$$;M  XXXXXz     8                                     ",
"                                    VM     $;<$XXXX$z                                           ",
"                                            &XXXXX$X<                                           ",
"                                            8XXXXXXX$;yP                                        ",
"                                             $XXXXX$                                            ",
"                                              XXXXX                                             ",
"                                            d&XXXX$                                             ",
"                                             $XXXX$                                             ",
"                                             XXXXXX<                                            ",
"                                             $XXXXXX;n                                          ",
"                                             $XXXXXXX<8q                                        ",
"                                            dXXXXXX;<d5                                         ",
"                                            yXXXXX$                                             ",
"                                             $XXXXX                                             ",
"                                             <XXXXX&$y                                          ",
"                                             qXXXXXX$d                                          ",
"                                             &XXXXXq                                            ",
"                                             $XXXX$F                                            ",
"                                             5XXXX$j                                            ",
"                                              XXXXX                                             ",
"                                              XXXXX;                                            ",
"                                             ;XXXXX<                                            ",
"                                             <XXXXX&                                            ",
"                                             5XXXXXX                                            ",
"                                             &XXXXXXz                                           ",
"                                             ;XXXXXXd                                           ",
"                                             5XXXXXX;                                           ",
"                                             $XXXXXX$q                                          ",
"                                             XXXXXXXX5                                          ",
"                                            5XXXXXXXX5                                          ",
"                                           8XXXXXXXXX&                                          ",
"                                         5XXXXXXXXXXX$                                          ",
"                                       <&XXXXXXXXXXXXX&                                         ",
"                                     <$XXXXXXXXXXXXXXX&5;X$&;<&;                                ",
"                                Md<&&X$X$85<<;&yyy       &<q&$$&j                               ",
"                                 K    nq                                                        ",
"                                                                                                ",
"                                                                                                ",
"                                                                                                ",
"                                                                                                ",
"                                                                                                "
};
